<mxfile host="app.diagrams.net" modified="2023-10-06T17:51:51.063Z" agent="Mozilla/5.0 (Windows NT 10.0; Win64; x64) AppleWebKit/537.36 (KHTML, like Gecko) Chrome/117.0.0.0 Safari/537.36 Edg/117.0.2045.55" version="22.0.3" etag="0X3thyBO0tXeDAotVyIx" type="github">
  <diagram name="PÃ¡gina-1" id="C0Amt09ZCALY9xrcyqhV">
    <mxGraphModel>
      <root>
        <mxCell id="0" />
        <mxCell id="1" parent="0" />
      </root>
    </mxGraphModel>
  </diagram>
</mxfile>
